<?xml version="1.0" encoding="UTF-8"?>
<svg xmlns="http://www.w3.org/2000/svg" width="1254" height="1254" viewBox="0 0 1254 1254" role="img" aria-label="Purple lightning ticket icon on transparent background">
  <defs>
    <linearGradient id="purpleGradient" x1="174" y1="856" x2="944" y2="330" gradientUnits="userSpaceOnUse">
      <stop offset="0" stop-color="#6B21FF"/>
      <stop offset="0.45" stop-color="#7A1FFF"/>
      <stop offset="1" stop-color="#9A34FF"/>
    </linearGradient>
  </defs>
  <path d="M 960.0 325.0 L 949.0 322.0 L 940.0 323.0 L 821.0 354.0 L 815.0 357.0 L 722.0 553.0 L 715.0 571.0 L 837.0 571.0 L 838.0 578.0 L 624.0 851.0 L 623.0 855.0 L 706.0 833.0 L 1052.0 733.0 L 1066.0 726.0 L 1074.0 716.0 L 1077.0 705.0 L 1076.0 692.0 L 1048.0 591.0 L 1023.0 590.0 L 1014.0 587.0 L 995.0 576.0 L 979.0 558.0 L 970.0 538.0 L 968.0 529.0 L 968.0 509.0 L 974.0 489.0 L 983.0 474.0 L 994.0 463.0 L 1008.0 455.0 L 976.0 342.0 L 971.0 334.0 Z M 771.0 367.0 L 659.0 394.0 L 392.0 465.0 L 378.0 472.0 L 371.0 482.0 L 370.0 497.0 L 374.0 505.0 L 384.0 513.0 L 398.0 515.0 L 487.0 491.0 L 496.0 491.0 L 505.0 496.0 L 511.0 503.0 L 513.0 510.0 L 511.0 522.0 L 505.0 530.0 L 498.0 534.0 L 234.0 613.0 L 230.0 616.0 L 230.0 619.0 L 232.0 621.0 L 312.0 612.0 L 474.0 589.0 L 485.0 594.0 L 493.0 605.0 L 493.0 617.0 L 488.0 626.0 L 477.0 633.0 L 367.0 662.0 L 181.0 718.0 L 177.0 722.0 L 176.0 728.0 L 182.0 735.0 L 193.0 735.0 L 461.0 685.0 L 474.0 686.0 L 484.0 694.0 L 488.0 704.0 L 487.0 714.0 L 481.0 723.0 L 473.0 728.0 L 372.0 758.0 L 233.0 804.0 L 227.0 809.0 L 228.0 817.0 L 231.0 819.0 L 251.0 817.0 L 521.0 765.0 L 533.0 765.0 L 544.0 772.0 L 549.0 783.0 L 547.0 796.0 L 538.0 806.0 L 327.0 868.0 L 322.0 873.0 L 322.0 879.0 L 327.0 884.0 L 337.0 884.0 L 465.0 863.0 L 481.0 862.0 L 491.0 874.0 L 499.0 880.0 L 511.0 884.0 L 524.0 884.0 L 576.0 869.0 L 648.0 712.0 L 666.0 669.0 L 544.0 669.0 L 542.0 667.0 L 542.0 662.0 L 768.0 373.0 Z M 875.0 505.0 L 883.0 505.0 L 888.0 510.0 L 894.0 531.0 L 894.0 540.0 L 889.0 544.0 L 883.0 544.0 L 878.0 540.0 L 871.0 516.0 L 871.0 509.0 Z M 839.0 373.0 L 845.0 373.0 L 850.0 378.0 L 856.0 399.0 L 856.0 409.0 L 850.0 413.0 L 846.0 413.0 L 840.0 408.0 L 834.0 388.0 L 833.0 379.0 Z M 895.0 571.0 L 903.0 571.0 L 907.0 576.0 L 914.0 600.0 L 913.0 606.0 L 908.0 610.0 L 902.0 610.0 L 897.0 605.0 L 890.0 581.0 L 891.0 574.0 Z M 857.0 439.0 L 864.0 439.0 L 869.0 444.0 L 875.0 466.0 L 875.0 474.0 L 871.0 478.0 L 864.0 478.0 L 859.0 474.0 L 852.0 450.0 L 852.0 444.0 Z M 914.0 636.0 L 921.0 636.0 L 926.0 641.0 L 932.0 662.0 L 932.0 671.0 L 928.0 675.0 L 920.0 675.0 L 916.0 671.0 L 909.0 646.0 L 909.0 642.0 Z M 934.0 701.0 L 941.0 702.0 L 945.0 707.0 L 951.0 729.0 L 951.0 734.0 L 946.0 740.0 L 939.0 740.0 L 934.0 734.0 L 928.0 712.0 L 929.0 705.0 Z" fill="url(#purpleGradient)" fill-rule="evenodd"/>
</svg>
