<svg width="1280" height="720" viewBox="0 0 1280 720" fill="none" xmlns="http://www.w3.org/2000/svg" role="img" aria-labelledby="title desc">
  <title id="title">TicketRush placeholder preview</title>
  <desc id="desc">Decorative placeholder illustrating a TicketRush dashboard layout.</desc>
  <defs>
    <linearGradient id="bg" x1="0" y1="0" x2="1280" y2="720" gradientUnits="userSpaceOnUse">
      <stop stop-color="#111827"/>
      <stop offset="1" stop-color="#312E81"/>
    </linearGradient>
    <linearGradient id="card" x1="0" y1="0" x2="1" y2="1">
      <stop stop-color="#8B5CF6"/>
      <stop offset="1" stop-color="#22D3EE"/>
    </linearGradient>
  </defs>

  <rect width="1280" height="720" fill="url(#bg)"/>
  <rect x="48" y="40" width="1184" height="640" rx="24" fill="#0B1020" stroke="#374151"/>
  <rect x="80" y="88" width="300" height="24" rx="8" fill="#E5E7EB" fill-opacity="0.9"/>
  <rect x="80" y="128" width="220" height="14" rx="7" fill="#9CA3AF"/>

  <rect x="80" y="184" width="352" height="196" rx="16" fill="#111827" stroke="#374151"/>
  <rect x="104" y="214" width="168" height="16" rx="8" fill="#D1D5DB"/>
  <rect x="104" y="246" width="304" height="12" rx="6" fill="#6B7280"/>
  <rect x="104" y="270" width="260" height="12" rx="6" fill="#6B7280"/>
  <rect x="104" y="314" width="140" height="38" rx="10" fill="url(#card)"/>

  <rect x="456" y="184" width="352" height="196" rx="16" fill="#111827" stroke="#374151"/>
  <rect x="480" y="214" width="144" height="16" rx="8" fill="#D1D5DB"/>
  <rect x="480" y="246" width="304" height="12" rx="6" fill="#6B7280"/>
  <rect x="480" y="270" width="280" height="12" rx="6" fill="#6B7280"/>
  <rect x="480" y="314" width="164" height="38" rx="10" fill="#22D3EE" fill-opacity="0.45"/>

  <rect x="832" y="184" width="368" height="440" rx="16" fill="#111827" stroke="#374151"/>
  <rect x="856" y="214" width="148" height="16" rx="8" fill="#D1D5DB"/>
  <rect x="856" y="248" width="320" height="10" rx="5" fill="#6B7280"/>
  <rect x="856" y="272" width="280" height="10" rx="5" fill="#6B7280"/>
  <rect x="856" y="302" width="320" height="292" rx="12" fill="#0F172A" stroke="#374151"/>

  <g fill="#A78BFA">
    <rect x="96" y="420" width="72" height="72" rx="14"/>
    <rect x="184" y="420" width="72" height="72" rx="14"/>
    <rect x="272" y="420" width="72" height="72" rx="14"/>
    <rect x="360" y="420" width="72" height="72" rx="14"/>
    <rect x="448" y="420" width="72" height="72" rx="14"/>
    <rect x="536" y="420" width="72" height="72" rx="14"/>
    <rect x="624" y="420" width="72" height="72" rx="14"/>
    <rect x="712" y="420" width="72" height="72" rx="14"/>
  </g>

  <text x="80" y="592" fill="#E5E7EB" font-family="Inter, Segoe UI, Arial, sans-serif" font-size="34" font-weight="700">
    TicketRush
  </text>
  <text x="80" y="626" fill="#9CA3AF" font-family="Inter, Segoe UI, Arial, sans-serif" font-size="20">
    Placeholder preview — replace with real product screenshots
  </text>
</svg>
